# AST/ASF file generated using VICON BodyLanguage
# -----------------------------------------------
:version 1.10
:name VICON
:units
  mass 1.0
  length 0.45
  angle deg
:documentation
   .ast/.asf automatically generated from VICON data using
   VICON BodyBuilder and BodyLanguage model FoxedUp or BRILLIANT.MOD
:root
   order TX TY TZ RX RY RZ
   axis XYZ
   position 0 0 0  
   orientation 0 0 0 
:bonedata
  begin
     id 1 
     name lhipjoint
     direction 0.702568 -0.596508 0.388042 
     length 2.56661 
     axis 0 0 0  XYZ
  end
  begin
     id 2 
     name lfemur
     direction 0.34202 -0.939693 0  
     length 6.58374  
     axis 0 0 20  XYZ
    dof rx ry rz
    limits (-160.0 20.0)
           (-70.0 70.0)
           (-60.0 70.0)
  end
  begin
     id 3 
     name ltibia
     direction 0.34202 -0.939693 0   
     length 6.62538   
     axis 0 0 20   XYZ
    dof rx
    limits (-10.0 170.0)
  end
  begin
     id 4 
     name lfoot
     direction 0.10455 -0.287249 0.952133   
     length 2.26699   
     axis -90 7.62852e-016 20   XYZ
    dof rx rz
    limits (-45.0 90.0)
           (-70.0 20.0)
  end
  begin
     id 5 
     name ltoes
     direction 1.53572e-011 -4.22322e-011 1   
     length 1.12949   
     axis -90 7.62852e-016 20   XYZ
    dof rx
    limits (-90.0 20.0)
  end
  begin
     id 6 
     name rhipjoint
     direction -0.728055 -0.574632 0.373811   
     length 2.66432  
     axis 0 0 0  XYZ 
  end
  begin
     id 7 
     name rfemur
     direction -0.34202 -0.939693 0   
     length 6.66732   
     axis 0 0 -20   XYZ
    dof rx ry rz
    limits (-160.0 20.0)
           (-70.0 70.0)
           (-70.0 60.0)
  end
  begin
     id 8 
     name rtibia
     direction -0.34202 -0.939693 0   
     length 6.59288   
     axis 0 0 -20   XYZ
    dof rx
    limits (-10.0 170.0)
 end
 begin
     id 9 
     name rfoot
     direction -0.119193 -0.327479 0.93731   
     length 2.38061  
     axis -90 -7.62852e-016 -20   XYZ
    dof rx rz
    limits (-45.0 90.0)
           (-20.0 70.0)
  end
  begin
     id 10 
     name rtoes
     direction -1.53547e-011 -4.21827e-011 1   
     length 1.17899   
     axis -90 -7.62852e-016 -20   XYZ
    dof rx
    limits (-90.0 20.0)
  end
  begin
     id 11 
     name lowerback
     direction -0.000416114 0.999912 -0.0132284   
     length 2.12109   
     axis 0 0 0   XYZ
    dof rx ry rz
    limits (-20.0 45.0)
           (-30.0 30.0)
           (-30.0 30.0)
  end
  begin
     id 12 
     name upperback
     direction -0.00136371 0.99809 0.0617608   
     length 2.10067   
     axis 0 0 0   XYZ
    dof rx ry rz
    limits (-20.0 45.0)
           (-30.0 30.0)
           (-30.0 30.0)
  end
  begin
     id 13 
     name thorax
     direction -3.43026e-005 0.997776 0.0666515   
     length 2.10618   
     axis 0 0 0   XYZ
    dof rx ry rz
    limits (-20.0 45.0)
           (-30.0 30.0)
           (-30.0 30.0)
  end
  begin
     id 14 
     name lowerneck
     direction 0.0398646 0.998418 0.0396592   
     length 1.83817   
     axis 0 0 0   XYZ
    dof rx ry rz
    limits (-20.0 45.0)
           (-30.0 30.0)
           (-30.0 30.0)
  end
  begin
     id 15 
     name upperneck
     direction -0.0367268 0.961527 -0.272244   
     length 1.81975   
     axis 0 0 0   XYZ
    dof rx ry rz
    limits (-20.0 45.0)
           (-30.0 30.0)
           (-30.0 30.0)
  end
  begin
     id 16
     name head
     direction -0.0182665 0.99536 -0.0944669  
     length 1.86026  
     axis 0 0 0   XYZ
    dof rx ry rz
    limits (-20.0 45.0)
           (-30.0 30.0)
           (-30.0 30.0)
  end
  begin
     id 17 
     name lclavicle
     direction 0.924239 0.361045 0.124212  
     length 3.26878  
     axis 0 0 0   XYZ
    dof ry rz
    limits (-20.0 10.0)
           (0.0 20.0)
  end
  begin
     id 18 
     name lhumerus
     direction 1 -4.48968e-011 -2.56583e-027   
     length 4.58538   
     axis 180 -30 -90   XYZ
    dof rx ry rz
    limits (-60.0 90.0)
           (-90.0 90.0)
           (-90.0 90.0)
  end
  begin
     id 19
     name lradius
     direction 1 -4.4898e-011 -5.50375e-027   
     length 2.68935   
     axis 180 -30 -90   XYZ
    dof rx
    limits (-10.0 170.0)
  end
  begin
     id 20
     name lwrist
     direction 1 -4.48939e-011 -1.48955e-026   
     length 1.34468   
     axis 9.0955e-015 90 90   XYZ
    dof ry
    limits (-180.0 0.0)
 end
  begin
     id 21 
     name lhand
     direction 1 -4.48936e-011 -2.97907e-026   
     length 0.585058   
     axis 1.90115e-014 90 90   XYZ
    dof rx rz
    limits (-90.0 90.0)
           (-45.0 45.0)
  end
  begin
     id 22 
     name lfingers
     direction 1 -4.49082e-011 -5.96235e-026   
     length 0.471689   
     axis 3.80223e-014 90 90   XYZ
    dof rx
    limits (0.0 90.0)
  end
  begin
     id 23
     name lthumb
     direction 0.707107 -6.3489e-011 0.707107   
     length 0.677253   
     axis -90 45 -3.84942e-014   XYZ
    dof rx rz
    limits (-45.0 45.0)
           (-45.0 45.0)
  end
  begin
     id 24 
     name rclavicle
     direction -0.923098 0.371783 0.0983239   
     length 3.19656  
     axis 0 0 0   XYZ 
    dof ry rz
    limits (-10.0 20.0)
           (-20.0 0.0)
  end
  begin
     id 25 
     name rhumerus
     direction -1 -4.48976e-011 -2.5492e-027  
     length 4.4745   
     axis 180 30 90   XYZ
    dof rx ry rz
    limits (-90.0 60.0)
           (-90.0 90.0)
           (-90.0 90.0)
  end
  begin
     id 26 
     name rradius
     direction -1 -4.48941e-011 -4.36555e-027   
     length 2.93896   
     axis 180 30 90   XYZ
    dof rx
    limits (-10.0 170.0)
  end
  begin
     id 27 
     name rwrist
     direction -1 -4.49044e-011 -1.49032e-026   
     length 1.46948   
     axis 9.0955e-015 -90 -90   XYZ
    dof ry
    limits (-180.0 0.0)
  end
  begin
     id 28
     name rhand
     direction -1 -4.48826e-011 -2.97749e-026   
     length 0.405092   
     axis 1.90115e-014 -90 -90   XYZ
    dof rx rz
    limits (-90.0 90.0)
           (-45.0 45.0)
  end
  begin
     id 29
     name rfingers
     direction -1 -4.49209e-011 -5.96602e-026   
     length 0.326596   
     axis 3.80223e-014 -90 -90   XYZ
    dof rx
    limits (0.0 90.0)
  end
  begin
     id 30
     name rthumb
     direction -0.707107 -6.34776e-011 0.707107   
     length 0.468928   
     axis -90 -45 3.84942e-014   XYZ
    dof rx rz
    limits (-45.0 45.0)
           (-45.0 45.0)
  end
:hierarchy
  begin
    root lhipjoint rhipjoint lowerback
    lhipjoint lfemur
    lfemur ltibia
    ltibia lfoot
    lfoot ltoes
    rhipjoint rfemur
    rfemur rtibia
    rtibia rfoot
    rfoot rtoes
    lowerback upperback
    upperback thorax
    thorax lowerneck lclavicle rclavicle
    lowerneck upperneck
    upperneck head
    lclavicle lhumerus
    lhumerus lradius
    lradius lwrist
    lwrist lhand lthumb
    lhand lfingers
    rclavicle rhumerus
    rhumerus rradius
    rradius rwrist
    rwrist rhand rthumb
    rhand rfingers
  end

#!OML:ASF H:\Punching\Project 1\Capture day 1\Session 1\female.ASF
:FULLY-SPECIFIED
:DEGREES
110
root 2.09735 14.0293 0.994018 14.2496 -0.831001 5.83554
lowerback -6.30431 -3.1599 -4.99228
upperback -8.92391 -4.06791 1.52961
thorax -5.34862 -1.69879 4.31047
lowerneck -15.3338 6.29862 12.4545
upperneck 34.7884 9.77091 -11.4367
head 16.2766 4.28327 -5.36541
rclavicle -5.79457e-014 -2.38542e-015
rhumerus 0.23011 21.7111 -69.479
rradius 134.788
rwrist -15.0356
rhand -29.586 3.51746
rfingers 7.12502
rthumb -2.91765 -26.4423
lclavicle -5.79457e-014 -2.38542e-015
lhumerus -4.52079 -31.0161 84.3839
lradius 138.39
lwrist -5.22448
lhand -28.5457 3.41304
lfingers 7.12502
lthumb -1.91291 33.3842
rfemur -61.352 -3.84864 6.32886
rtibia 59.7754
rfoot -9.86409 -3.89158
rtoes -7.35239
lfemur 7.61112 -10.5713 -25.8806
ltibia 18.6336
lfoot -39.3106 33.9305
ltoes -8.39329
111
root 2.0506 13.9981 1.06653 14.1763 -1.19792 5.76045
lowerback -6.34303 -3.32025 -4.97954
upperback -8.98119 -4.27856 1.67234
thorax -5.35638 -1.80026 4.44626
lowerneck -15.2427 6.59431 12.7062
upperneck 34.5811 10.2535 -11.7481
head 16.2843 4.48094 -5.44593
rclavicle -5.37713e-014 -2.14687e-014
rhumerus 0.279484 21.5142 -68.8948
rradius 134.846
rwrist -15.247
rhand -29.5788 3.36768
rfingers 7.12502
rthumb -2.91069 -26.5922
lclavicle -5.37713e-014 -2.14687e-014
lhumerus -4.56557 -30.9303 84.5564
lradius 138.365
lwrist -5.31498
lhand -28.7387 3.21319
lfingers 7.12502
lthumb -2.09938 33.1826
rfemur -61.6153 -3.51454 6.59775
rtibia 60.6406
rfoot -10.4774 -3.7472
rtoes -6.88094
lfemur 8.08715 -10.5301 -25.8403
ltibia 18.6751
lfoot -39.5854 34.0783
ltoes -8.98135
112
root 2.00057 13.967 1.14208 14.0871 -1.57123 5.68104
lowerback -6.37176 -3.47913 -4.97142
upperback -9.04065 -4.48792 1.81075
thorax -5.37144 -1.90068 4.58068
lowerneck -15.1526 6.89009 12.9535
upperneck 34.387 10.7319 -12.0403
head 16.3005 4.67917 -5.51767
rclavicle -8.24956e-015 1.19271e-014
rhumerus 0.352655 21.2787 -68.2544
rradius 134.902
rwrist -15.4597
rhand -29.5745 3.1812
rfingers 7.12502
rthumb -2.90653 -26.7787
lclavicle -8.24956e-015 1.19271e-014
lhumerus -4.59666 -30.8097 84.682
lradius 138.325
lwrist -5.38452
lhand -28.9318 2.99726
lfingers 7.12502
lthumb -2.2858 32.9648
rfemur -61.8199 -3.11523 6.84701
rtibia 61.4757
rfoot -11.1253 -3.63037
rtoes -6.51201
lfemur 8.58613 -10.4561 -25.775
ltibia 18.7446
lfoot -39.7932 34.1608
ltoes -9.72475
113
root 1.94726 13.9366 1.22093 13.9757 -1.94814 5.58989
lowerback -6.39148 -3.63647 -4.95852
upperback -9.09306 -4.69576 1.94681
thorax -5.38368 -2.00094 4.71013
lowerneck -15.0828 7.18886 13.1894
upperneck 34.2115 11.2106 -12.3109
head 16.3326 4.87833 -5.57731
rclavicle 2.87244e-014 -1.82882e-014
rhumerus 0.449345 21.0118 -67.5626
rradius 134.951
rwrist -15.6766
rhand -29.5635 2.99382
rfingers 7.12502
rthumb -2.89588 -26.9663
lclavicle 2.87244e-014 -1.82882e-014
lhumerus -4.60722 -30.649 84.7541
lradius 138.28
lwrist -5.4413
lhand -29.1162 2.77432
lfingers 7.12502
lthumb -2.4639 32.7398
rfemur -61.9523 -2.65157 7.0883
rtibia 62.2718
rfoot -11.8036 -3.546
rtoes -6.25852
lfemur 9.11436 -10.3364 -25.6704
ltibia 18.8386
lfoot -39.9048 34.1699
ltoes -10.6524
114
root 1.89079 13.9079 1.30306 13.8418 -2.32041 5.47913
lowerback -6.39759 -3.79396 -4.92698
upperback -9.13794 -4.90476 2.08256
thorax -5.39569 -2.10307 4.82927
lowerneck -15.0447 7.49056 13.4116
upperneck 34.0596 11.6905 -12.562
head 16.3856 5.07755 -5.62518
rclavicle 3.18055e-015 -7.95139e-016
rhumerus 0.568892 20.7244 -66.831
rradius 135.005
rwrist -15.9468
rhand -29.5305 2.74174
rfingers 7.12502
rthumb -2.86403 -27.2188
lclavicle 3.18055e-015 -7.95139e-016
lhumerus -4.60068 -30.4432 84.7712
lradius 138.227
lwrist -5.50033
lhand -29.3001 2.55769
lfingers 7.12502
lthumb -2.64154 32.5211
rfemur -62.0068 -2.13761 7.34116
rtibia 63.022
rfoot -12.4951 -3.4928
rtoes -6.11667
lfemur 9.66983 -10.1594 -25.507
ltibia 18.9515
lfoot -39.8912 34.0937
ltoes -11.769
115
root 1.83141 13.882 1.38876 13.6837 -2.68151 5.34033
lowerback -6.39923 -3.94956 -4.86149
upperback -9.17736 -5.11216 2.21499
thorax -5.40639 -2.2067 4.92602
lowerneck -15.0024 7.79068 13.6259
upperneck 33.9221 12.1675 -12.7973
head 16.4458 5.2767 -5.66486
rclavicle 3.63776e-014 1.66979e-014
rhumerus 0.675727 20.4254 -66.0741
rradius 135.057
rwrist -16.2468
rhand -29.4965 2.53062
rfingers 7.12502
rthumb -2.83121 -27.4303
lclavicle 3.63776e-014 1.66979e-014
lhumerus -4.59729 -30.2203 84.739
lradius 138.181
lwrist -5.58935
lhand -29.4971 2.38583
lfingers 7.12502
lthumb -2.83182 32.3468
rfemur -61.9775 -1.58738 7.62794
rtibia 63.7192
rfoot -13.1807 -3.47125
rtoes -6.05487
lfemur 10.2498 -9.92218 -25.2708
ltibia 19.0867
lfoot -39.739 33.9257
ltoes -13.0462
